<svg width="512" height="512" viewBox="0 0 512 512" fill="none" xmlns="http://www.w3.org/2000/svg">
<g clip-path="url(#clip0_14_378)">
<path d="M27.2439 394.809C20.7706 394.809 15.6944 392.946 12.0153 389.22C8.33618 385.495 6.49663 380.372 6.49663 373.852V345.351H15.7177V373.643C15.7177 378.113 16.7189 381.42 18.7215 383.562C20.724 385.658 23.5649 386.706 27.2439 386.706C30.9696 386.706 33.8104 385.635 35.7664 383.492C37.769 381.303 38.7702 378.02 38.7702 373.643V345.351H47.9913V373.852C47.9913 380.372 46.1517 385.495 42.4726 389.22C38.7935 392.946 33.7173 394.809 27.2439 394.809ZM86.6409 345.351C91.624 345.351 95.9085 346.352 99.4944 348.355C103.08 350.311 105.805 353.128 107.668 356.807C109.53 360.44 110.462 364.724 110.462 369.661C110.462 374.597 109.53 378.905 107.668 382.584C105.805 386.217 103.08 389.034 99.4944 391.037C95.9085 392.993 91.624 393.971 86.6409 393.971H68.6878V345.351H86.6409ZM86.6409 385.798C91.0651 385.798 94.5114 384.424 96.9796 381.676C99.4944 378.928 100.752 374.923 100.752 369.661C100.752 364.398 99.4944 360.393 96.9796 357.645C94.5114 354.898 91.0651 353.524 86.6409 353.524H77.9088V385.798H86.6409ZM164.161 345.351L146.487 377.205V393.971H137.266V377.205L119.592 345.351H129.442L141.946 368.962L154.66 345.351H164.161ZM231.621 345.351H240.842V393.971H231.621V345.351Z" fill="#BB0303"/>
<path d="M296.644 368.683C301.301 370.685 303.63 374.574 303.63 380.349C303.63 385.052 302.14 388.499 299.159 390.687C296.179 392.876 291.987 393.971 286.585 393.971H269.54V345.351H287.074C291.824 345.351 295.503 346.399 298.111 348.494C300.719 350.59 302.023 353.78 302.023 358.065C302.023 362.955 300.23 366.494 296.644 368.683ZM275.687 351.219V366.238H286.306C289.519 366.238 291.824 365.656 293.221 364.491C294.665 363.327 295.387 361.278 295.387 358.344C295.387 355.643 294.665 353.78 293.221 352.755C291.824 351.731 289.519 351.219 286.306 351.219H275.687ZM286.585 388.103C290.264 388.103 292.919 387.544 294.549 386.426C296.179 385.309 296.994 383.19 296.994 380.069C296.994 376.949 296.155 374.83 294.479 373.712C292.849 372.595 290.171 372.036 286.445 372.036H275.687V388.103H286.585ZM392.609 394.809C389.908 394.809 387.09 394.46 384.156 393.761C381.222 393.063 378.451 392.108 375.843 390.897V384.261C378.917 385.937 381.758 387.171 384.366 387.963C387.02 388.755 389.628 389.151 392.19 389.151C395.403 389.151 397.895 388.429 399.664 386.985C401.434 385.541 402.319 383.562 402.319 381.047C402.319 379.324 401.83 377.88 400.852 376.716C399.874 375.552 398.64 374.621 397.15 373.922C395.659 373.223 393.657 372.455 391.142 371.617C388.115 370.592 385.67 369.614 383.807 368.683C381.991 367.751 380.431 366.424 379.127 364.701C377.823 362.978 377.171 360.742 377.171 357.995C377.171 353.896 378.661 350.637 381.641 348.215C384.622 345.747 388.627 344.512 393.657 344.512C398.547 344.512 403.041 345.56 407.139 347.656V354.083C402.528 351.475 398.034 350.171 393.657 350.171C390.443 350.171 387.929 350.823 386.112 352.127C384.296 353.384 383.388 355.131 383.388 357.366C383.388 358.903 383.854 360.184 384.785 361.208C385.716 362.233 386.857 363.071 388.208 363.723C389.559 364.328 391.468 365.073 393.936 365.958C397.01 366.983 399.525 367.984 401.481 368.962C403.437 369.94 405.09 371.361 406.44 373.223C407.838 375.086 408.536 377.485 408.536 380.419C408.536 383.306 407.884 385.844 406.58 388.033C405.276 390.175 403.413 391.852 400.992 393.063C398.57 394.227 395.776 394.809 392.609 394.809ZM436.384 351.219V366.587H457.69V372.176H436.384V388.103H459.227V393.971H430.237V345.351H459.227V351.219H436.384Z" fill="#BB0303"/>
<path d="M170.086 394.329L188.177 345.838L198.935 345.915L216.329 394.661L206.34 394.589L193.276 355.654L179.726 394.398L170.086 394.329Z" fill="#BB0303"/>
<path d="M322.989 394.34L341.15 345.849L348.834 345.904L366.298 394.65L359.802 394.604L344.734 352.651L329.136 394.384L322.989 394.34Z" fill="#BB0303"/>
<circle cx="390.61" cy="258.06" r="20.4319" fill="#BB0303"/>
<path d="M229.792 151.136L232.196 155.944H205.755V219.042C205.755 219.042 205.41 220.878 205.154 222.047C204.74 223.937 204.615 225.037 203.952 226.855C203.233 228.826 202.71 229.914 201.548 231.662L201.49 231.75C200.694 232.948 200.217 233.665 199.145 234.667C197.908 235.822 197.038 236.284 195.539 237.071C193.763 238.002 192.673 238.373 190.731 238.873C186.186 240.044 183.336 239.684 178.713 238.873C176.807 238.539 173.905 237.671 173.905 237.671C173.905 237.671 171.581 236.784 170.3 235.869C168.998 234.939 168.393 234.202 167.408 233.001L167.295 232.864C166.221 231.556 165.621 230.785 164.891 229.258C164.251 227.919 164.099 227.079 163.689 225.653C163.092 223.573 162.487 220.244 162.487 220.244V155.944H125.229V220.244C125.229 223.06 124.998 224.649 125.229 227.456C125.463 230.301 125.771 231.889 126.431 234.667C126.997 237.051 127.428 238.362 128.234 240.676C129.065 243.063 130.638 246.686 130.638 246.686C130.638 246.686 132.638 250.127 134.243 252.094C135.922 254.151 137.045 255.162 139.051 256.902C141.462 258.993 142.933 260.052 145.661 261.709C148.352 263.343 149.932 264.189 152.872 265.315C156.487 266.698 158.681 267.017 162.487 267.718C166.438 268.446 168.699 268.599 172.703 268.92C181.359 269.615 186.289 269.691 194.938 268.92C197.055 268.732 198.246 268.64 200.346 268.319C202.712 267.958 204.244 267.822 206.356 267.117L211.764 265.315C211.764 265.315 213.991 264.271 215.37 263.512C217.31 262.444 218.32 261.712 220.177 260.507C221.597 259.586 222.389 259.063 223.783 258.103C225.446 256.959 226.394 256.335 227.99 255.099C229.438 253.976 231.595 252.094 231.595 252.094L229.792 255.7C228.854 257.577 228.382 258.658 227.389 260.507C226.494 262.174 225.972 263.099 224.985 264.714C223.661 266.88 221.379 270.122 221.379 270.122C221.379 270.122 219.235 273.094 217.774 274.93C216.632 276.364 215.951 277.135 214.769 278.535C213.373 280.189 212.657 281.176 211.163 282.742C209.398 284.593 206.356 287.189 206.356 287.189C206.356 287.189 204.255 289.25 202.75 290.554C200.585 292.43 199.145 293.203 196.741 294.761C194.444 296.249 190.731 298.487 190.731 298.487C190.731 298.487 187.877 300.329 185.924 301.371C183.884 302.459 182.644 302.874 180.516 303.775C178.188 304.76 176.893 305.347 174.506 306.179C172.192 306.985 170.858 307.327 168.497 307.981C165.699 308.756 164.119 309.154 161.285 309.784C158.949 310.304 157.388 310.751 155.276 310.986L149.868 311.587C149.868 311.587 145.113 312.071 142.055 312.188C139.007 312.305 137.291 312.32 134.243 312.188C131.42 312.066 129.846 311.847 127.032 311.587C124.683 311.37 123.368 311.234 121.023 310.986C118.909 310.762 117.705 310.765 115.614 310.385C112.981 309.907 111.585 309.527 109.004 308.823C106.422 308.119 104.929 307.634 102.393 306.779C99.9982 305.972 98.6906 305.409 96.384 304.376C93.9896 303.303 92.7014 302.584 90.3746 301.371C87.767 300.012 86.2967 299.26 83.7643 297.765C81.8576 296.64 80.818 295.96 78.9568 294.761C76.8228 293.386 75.5644 292.698 73.5484 291.155C71.83 289.84 70.9735 288.97 69.3418 287.549C67.2106 285.694 65.994 284.676 63.9333 282.742C61.5132 280.471 60.2067 279.142 57.9239 276.733C55.7523 274.441 54.5046 273.175 52.5155 270.723C51.0369 268.901 50.2666 267.831 48.9098 265.916C46.6518 262.729 45.5257 260.843 43.5014 257.502C41.5402 254.266 40.4006 252.467 38.6939 249.089C36.8454 245.431 35.9305 243.31 34.4873 239.474C33.4421 236.696 32.9652 235.098 32.0836 232.263C31.0687 229 30.3997 227.19 29.6798 223.85C29.0297 220.833 28.8308 219.105 28.4782 216.041L28.4779 216.038C28.1282 212.998 28.0334 211.281 27.877 208.225C27.5651 202.132 27.5651 198.695 27.877 192.601C28.0334 189.545 28.0744 187.822 28.4779 184.789C28.9514 181.23 30.2807 175.294 30.2807 175.294C30.2807 175.294 31.1328 170.584 32.0836 167.362C32.8607 164.727 33.506 163.317 34.4873 160.751C35.3902 158.39 35.9003 157.067 36.8911 154.742C38.2082 151.651 38.9806 149.928 40.4967 146.93C41.8235 144.305 42.5129 142.793 44.1023 140.319C45.1935 138.621 45.905 137.735 47.107 136.113C48.7002 133.963 49.6084 132.766 51.3136 130.704C52.9034 128.782 53.8877 127.783 55.5202 125.897C56.936 124.261 57.6532 123.275 59.1258 121.69C60.4811 120.231 62.7314 118.085 62.7314 118.085C62.7314 118.085 65.2326 115.811 66.938 114.479C68.5293 113.237 69.5018 112.648 71.1446 111.474C72.7874 110.301 73.6881 109.614 75.3512 108.47C76.7453 107.51 77.5189 106.958 78.9568 106.066C80.5644 105.068 81.4929 104.551 83.1634 103.662C84.5533 102.923 85.3421 102.524 86.769 101.859C88.389 101.104 89.3328 100.76 90.9756 100.056C92.6183 99.3524 93.5145 98.8964 95.1822 98.2536C97.2596 97.4529 98.4685 97.1243 100.591 96.4508C102.926 95.7096 104.231 95.2721 106.6 94.648C109.849 93.792 111.705 93.4344 115.013 92.8452C118.281 92.2631 120.125 91.981 123.426 91.6433C131.831 90.7837 136.655 90.7861 145.06 91.6433C146.942 91.8352 147.996 91.966 149.868 92.2442C151.28 92.4542 152.074 92.5629 153.473 92.8452C155.37 93.2278 158.281 93.9269 158.281 93.9269C158.281 93.9269 161.221 94.7412 163.088 95.2489C165.453 95.8918 166.779 96.2613 169.098 97.0517C170.996 97.6986 172.048 98.0989 173.905 98.8546C176.046 99.7256 177.224 100.27 179.314 101.258C181.211 102.156 182.289 102.638 184.121 103.662C186.054 104.743 187.051 105.493 188.929 106.667C190.806 107.84 191.879 108.467 193.736 109.671C195.156 110.592 195.978 111.073 197.342 112.075C198.552 112.965 199.18 113.532 200.346 114.479C202.003 115.823 202.9 116.569 204.553 117.964C205.954 119.147 206.799 119.861 208.159 121.089C209.883 122.647 210.789 123.589 212.365 125.296C213.833 126.885 214.615 127.816 215.971 129.502C217.442 131.331 218.192 132.415 219.577 134.31C220.768 135.94 221.457 136.84 222.581 138.517C223.815 140.355 224.453 141.422 225.586 143.324L225.692 143.502C226.595 145.018 227.134 145.922 227.99 147.531C228.729 148.921 229.088 149.728 229.792 151.136Z" fill="#BB0303"/>
<path d="M282.2 238.657C285.142 243.227 289.52 246.785 294.696 248.696C293.704 248.391 293.071 248.103 292.056 247.603C290.829 246.999 290.178 246.578 289.052 245.8C287.815 244.947 287.163 244.403 286.047 243.397C285.061 242.508 284.462 242.038 283.643 240.993C282.968 240.131 282.642 239.492 282.2 238.657ZM278.822 219.407C278.413 221.21 278.196 223.086 278.196 225.012C278.196 228.055 278.735 230.972 279.722 233.674C279.378 232.914 279.113 232.32 278.836 231.378C278.498 230.23 278.39 229.56 278.235 228.373C277.933 226.068 277.94 224.726 278.235 222.42C278.387 221.229 278.49 220.547 278.822 219.407ZM310.106 200.664C310.932 200.846 311.791 201.068 312.488 201.331C313.955 201.884 316.077 203.124 316.094 203.134C316.094 203.134 316.196 203.209 316.372 203.336C314.436 202.178 312.332 201.273 310.106 200.664Z" fill="#BB0303"/>
<path fill-rule="evenodd" clip-rule="evenodd" d="M279.437 183.543C279.437 183.543 280.834 182.005 281.84 181.14C282.73 180.375 283.305 180.041 284.244 179.337C285.183 178.633 285.677 178.193 286.648 177.534C287.78 176.766 288.455 176.393 289.653 175.731C291.031 174.97 291.819 174.567 293.258 173.928C294.414 173.416 295.077 173.164 296.263 172.727C297.655 172.213 298.428 171.88 299.869 171.525C301.255 171.183 302.05 171.017 303.474 170.924C304.411 170.862 304.938 170.758 305.878 170.683C310.558 170.309 317.897 170.924 317.897 170.924C319.313 171.104 321.502 171.525 321.502 171.525L326.31 172.727C328.187 173.196 330.018 174.086 332.319 175.13C334.231 175.998 335.33 176.449 337.127 177.534C338.855 178.578 339.738 179.302 341.333 180.539C342.782 181.661 343.588 182.304 344.939 183.543C346.162 184.665 346.77 185.375 347.944 186.548C348.882 187.487 349.445 187.978 350.347 188.952L350.448 189.061C351.632 190.338 352.333 191.095 353.352 192.558C354.433 194.11 355.756 196.764 355.756 196.764L359.362 203.975L360.563 206.98L361.765 211.187L362.366 214.191L362.967 218.398C362.967 218.398 363.451 221.317 363.568 223.205C363.684 225.079 363.568 228.013 363.568 228.013C363.568 228.013 363.797 231.687 363.568 234.022C363.335 236.404 362.366 240.032 362.366 240.032C362.366 240.032 361.364 243.363 360.563 245.44C359.921 247.108 359.516 248.027 358.761 249.647C358.096 251.074 357.719 251.874 356.958 253.252C356.296 254.45 355.849 255.077 355.155 256.257C354.196 257.888 353.833 258.911 352.751 260.464C351.704 261.968 350.986 262.719 349.747 264.069C348.625 265.292 347.965 265.952 346.742 267.074C345.391 268.313 344.585 268.956 343.136 270.079C341.54 271.315 340.631 271.996 338.93 273.083C336.894 274.385 335.699 275.041 333.521 276.088C331.911 276.863 330.982 277.248 329.315 277.891C327.237 278.692 326.045 279.077 323.906 279.694C322.047 280.23 321.004 280.556 319.099 280.896C314.366 281.738 311.522 281.434 306.838 280.934L306.479 280.896C304.829 280.72 302.272 280.295 302.272 280.295C302.272 280.295 298.577 279.298 296.263 278.492C293.876 277.66 292.466 277.311 290.254 276.088C288.772 275.269 288.011 274.687 286.648 273.684C285.437 272.794 284.76 272.287 283.643 271.281C282.657 270.392 281.239 268.877 281.239 268.877L279.437 267.074V278.492H247.587V115.036H279.437V183.543ZM303.436 199.772C291.423 199.772 281.371 208.165 278.822 219.407C278.49 220.547 278.387 221.229 278.235 222.42C277.94 224.726 277.933 226.068 278.235 228.373C278.39 229.56 278.498 230.23 278.836 231.378C279.113 232.32 279.378 232.914 279.722 233.674C280.365 235.435 281.2 237.104 282.2 238.657C282.642 239.492 282.968 240.131 283.643 240.993C284.462 242.038 285.061 242.508 286.047 243.397C287.163 244.403 287.815 244.947 289.052 245.8C290.178 246.578 290.829 246.999 292.056 247.603C293.071 248.103 293.704 248.391 294.696 248.696C297.419 249.701 300.363 250.251 303.436 250.251C317.375 250.251 328.675 238.951 328.675 225.012C328.675 215.801 323.741 207.743 316.372 203.336C316.196 203.209 316.094 203.134 316.094 203.134C316.077 203.124 313.955 201.884 312.488 201.331C311.791 201.068 310.932 200.846 310.106 200.664C307.981 200.084 305.744 199.772 303.436 199.772Z" fill="#BB0303"/>
</g>
<defs>
<clipPath id="clip0_14_378">
<rect width="512" height="512" fill="white"/>
</clipPath>
</defs>
</svg>
